{
	"asset":{
		"generator":"Khronos glTF Blender I/O v5.0.21",
		"version":"2.0"
	},
	"scene":0,
	"scenes":[
		{
			"extras":{
				"bc":{},
				"collection_manager":{
					"update_header":[
						{
							"name":"updated",
							"last_name":"updated"
						}
					],
					"qcd_slots_blend_data":"{}\nset()"
				},
				"wiggle":{
					"is_rendering":0
				},
				"ypui":{
					"expand_channels":0,
					"expand_mask_channels":0,
					"show_bake_targets":0,
					"show_channels":1,
					"show_layers":1,
					"show_materials":0,
					"show_object":0,
					"show_stats":0,
					"show_support":0,
					"show_test":0,
					"tree_name":""
				}
			},
			"name":"Scene",
			"nodes":[
				0
			]
		}
	],
	"nodes":[
		{
			"mesh":0,
			"name":"Female_Regular",
			"scale":[
				50,
				50,
				50
			]
		}
	],
	"materials":[
		{
			"doubleSided":true,
			"extras":{
				"yp":{
					"active_ypaint_node":""
				}
			},
			"name":"MI_Regular_Female",
			"normalTexture":{
				"index":0
			},
			"pbrMetallicRoughness":{
				"baseColorTexture":{
					"index":1
				},
				"metallicFactor":0,
				"metallicRoughnessTexture":{
					"index":2
				}
			}
		}
	],
	"meshes":[
		{
			"name":"Female_Regular.001",
			"primitives":[
				{
					"attributes":{
						"POSITION":0,
						"NORMAL":1,
						"TEXCOORD_0":2,
						"TEXCOORD_1":3
					},
					"indices":4,
					"material":0
				}
			]
		}
	],
	"textures":[
		{
			"sampler":0,
			"source":0
		},
		{
			"sampler":0,
			"source":1
		},
		{
			"sampler":0,
			"source":2
		}
	],
	"images":[
		{
			"mimeType":"image/png",
			"name":"T_Regular_Female_Normal",
			"uri":"textures/T_Regular_Female_Normal.png"
		},
		{
			"mimeType":"image/png",
			"name":"T_Regular_Female_Dark_BaseColor",
			"uri":"textures/T_Regular_Female_Dark_BaseColor.png"
		},
		{
			"mimeType":"image/png",
			"name":"T_Regular_Female_Roughness",
			"uri":"textures/T_Regular_Female_Roughness.png"
		}
	],
	"accessors":[
		{
			"bufferView":0,
			"componentType":5126,
			"count":130,
			"max":[
				0.04182308912277222,
				0.013178110122680664,
				0.011403193697333336
			],
			"min":[
				-0.05142247676849365,
				-0.010296821594238281,
				-0.009727958589792252
			],
			"type":"VEC3"
		},
		{
			"bufferView":1,
			"componentType":5126,
			"count":130,
			"type":"VEC3"
		},
		{
			"bufferView":2,
			"componentType":5126,
			"count":130,
			"type":"VEC2"
		},
		{
			"bufferView":3,
			"componentType":5126,
			"count":130,
			"type":"VEC2"
		},
		{
			"bufferView":4,
			"componentType":5123,
			"count":546,
			"type":"SCALAR"
		}
	],
	"bufferViews":[
		{
			"buffer":0,
			"byteLength":1560,
			"byteOffset":0,
			"target":34962
		},
		{
			"buffer":0,
			"byteLength":1560,
			"byteOffset":1560,
			"target":34962
		},
		{
			"buffer":0,
			"byteLength":1040,
			"byteOffset":3120,
			"target":34962
		},
		{
			"buffer":0,
			"byteLength":1040,
			"byteOffset":4160,
			"target":34962
		},
		{
			"buffer":0,
			"byteLength":1092,
			"byteOffset":5200,
			"target":34963
		}
	],
	"samplers":[
		{
			"magFilter":9729,
			"minFilter":9987
		}
	],
	"buffers":[
		{
			"byteLength":6292,
			"uri":"finger.bin"
		}
	]
}
